<svg width="37" height="41" viewBox="0 0 37 41" fill="none" xmlns="http://www.w3.org/2000/svg">
<path d="M17.585 39.7279V40.7279H19.585V39.7279H17.585ZM19.585 1.27206C19.585 0.719779 19.1373 0.272064 18.585 0.272064C18.0327 0.272064 17.585 0.719779 17.585 1.27206H19.585ZM1.66547 15.0628H0.665466L0.665466 17.0628H1.66547L1.66547 15.0628ZM19.2634 1.95007C19.5557 1.48151 19.4129 0.864667 18.9443 0.572315C18.4758 0.279964 17.8589 0.422809 17.5666 0.89137L19.2634 1.95007ZM35.3345 17.0629L36.3345 17.0629L36.3345 15.0629L35.3345 15.0629L35.3345 17.0629ZM19.585 39.7279L19.585 1.42084H17.585L17.585 39.7279H19.585ZM19.585 1.42084V1.27206H17.585V1.42084H19.585ZM1.66547 17.0628C3.87363 17.0628 6.07926 16.0109 8.07481 14.5895C10.088 13.1555 12.0007 11.2639 13.6446 9.40403C15.2928 7.5395 16.6948 5.67938 17.6837 4.28779C18.1787 3.59113 18.5717 3.00981 18.8417 2.60134C18.9768 2.39706 19.0812 2.23588 19.1523 2.12497C19.1879 2.06951 19.2151 2.02661 19.2337 1.99716C19.243 1.98244 19.2502 1.97108 19.2551 1.96319C19.2576 1.95925 19.2596 1.95618 19.2609 1.95398C19.2616 1.95289 19.2622 1.95201 19.2626 1.95136C19.2628 1.95103 19.263 1.95071 19.2631 1.95055C19.2632 1.95028 19.2634 1.95007 18.415 1.42072C17.5666 0.89137 17.5666 0.89127 17.5667 0.891226C17.5666 0.891286 17.5666 0.891297 17.5665 0.891416C17.5664 0.891653 17.5661 0.892111 17.5657 0.892788C17.5648 0.894143 17.5634 0.896374 17.5615 0.899469C17.5576 0.905658 17.5515 0.915299 17.5433 0.92828C17.5269 0.954242 17.5019 0.993561 17.4687 1.04534C17.4023 1.14892 17.303 1.30231 17.1734 1.4984C16.914 1.89067 16.5338 2.45326 16.0534 3.12929C15.0914 4.48309 13.7337 6.28348 12.1461 8.07946C10.5544 9.88015 8.75564 11.649 6.91449 12.9604C5.05571 14.2844 3.2642 15.0628 1.66547 15.0628L1.66547 17.0628ZM18.585 1.42084C17.6773 1.8404 17.6774 1.84071 17.6776 1.84107C17.6777 1.84126 17.6779 1.84168 17.6781 1.84207C17.6784 1.84285 17.6789 1.84385 17.6795 1.84508C17.6806 1.84752 17.6821 1.85085 17.6841 1.85505C17.688 1.86345 17.6936 1.87533 17.7008 1.89058C17.7153 1.92108 17.7363 1.96505 17.7637 2.02162C17.8185 2.13473 17.8992 2.29824 18.0048 2.50496C18.216 2.91826 18.5273 3.50507 18.9319 4.20767C19.7397 5.61061 20.926 7.48659 22.4369 9.36802C25.4116 13.0721 29.8586 17.0629 35.3345 17.0629L35.3345 15.0629C30.8287 15.0629 26.901 11.7326 23.9963 8.11571C22.5676 6.33662 21.4381 4.55209 20.665 3.20964C20.2792 2.53955 19.9838 1.98245 19.7858 1.59502C19.6869 1.40137 19.6124 1.2503 19.5632 1.14893C19.5387 1.09825 19.5204 1.06001 19.5086 1.0351C19.5027 1.02265 19.4985 1.01353 19.4958 1.00785C19.4945 1.00501 19.4936 1.00303 19.4931 1.00193C19.4928 1.00138 19.4926 1.00105 19.4926 1.00094C19.4926 1.00088 19.4926 1.00097 19.4926 1.00094C19.4927 1.00108 19.4927 1.00127 18.585 1.42084Z" fill="white"/>
</svg>
