<svg width="360" height="248" viewBox="0 0 360 248" fill="none" xmlns="http://www.w3.org/2000/svg">
<g filter="url(#filter0_bi_34_466)">
<g clip-path="url(#clip0_34_466)">
<rect x="2.30972" y="245.448" width="243.448" height="356.02" rx="50" transform="rotate(-89.9939 2.30972 245.448)" fill="url(#paint0_radial_34_466)"/>
<path d="M26.274 235L26.274 225.9L28.757 225.9C29.537 225.9 30.1957 226.03 30.733 226.29C31.2747 226.55 31.7102 226.899 32.0395 227.336C32.3688 227.77 32.6072 228.257 32.7545 228.799C32.9062 229.336 32.982 229.887 32.982 230.45C32.982 230.974 32.9127 231.503 32.774 232.036C32.6353 232.569 32.4035 233.061 32.0785 233.511C31.7578 233.958 31.3223 234.317 30.772 234.59C30.2217 234.863 29.5327 235 28.705 235L26.274 235ZM27.405 233.947L28.848 233.947C29.4157 233.947 29.888 233.845 30.265 233.641C30.6463 233.433 30.9497 233.16 31.175 232.822C31.4047 232.48 31.5672 232.103 31.6625 231.691C31.7622 231.275 31.812 230.862 31.812 230.45C31.812 230.008 31.7578 229.579 31.6495 229.163C31.5455 228.743 31.3787 228.366 31.149 228.032C30.9237 227.698 30.6333 227.434 30.278 227.239C29.9227 227.04 29.4937 226.94 28.991 226.94L27.405 226.94L27.405 233.947ZM37.3614 235.156C36.4514 235.156 35.7342 234.846 35.2099 234.226C34.6855 233.602 34.4234 232.755 34.4234 231.685C34.4234 230.97 34.5425 230.352 34.7809 229.832C35.0192 229.312 35.3572 228.912 35.7949 228.63C36.2369 228.344 36.759 228.201 37.3614 228.201C37.968 228.201 38.4902 228.342 38.9279 228.623C39.3699 228.901 39.7079 229.299 39.9419 229.819C40.1802 230.339 40.2994 230.957 40.2994 231.672C40.2994 232.387 40.1802 233.007 39.9419 233.531C39.7035 234.051 39.3634 234.452 38.9214 234.733C38.4837 235.015 37.9637 235.156 37.3614 235.156ZM37.3614 234.103C37.9204 234.103 38.358 233.888 38.6744 233.459C38.995 233.026 39.1554 232.43 39.1554 231.672C39.1554 230.909 38.995 230.313 38.6744 229.884C38.358 229.455 37.9204 229.241 37.3614 229.241C36.798 229.241 36.3582 229.455 36.0419 229.884C35.7255 230.309 35.5674 230.909 35.5674 231.685C35.5674 232.443 35.7255 233.037 36.0419 233.466C36.3582 233.891 36.798 234.103 37.3614 234.103ZM43.0469 235L41.3439 228.357L42.4619 228.357L43.4759 232.816C43.5063 232.937 43.5323 233.059 43.5539 233.18C43.5799 233.297 43.6016 233.41 43.6189 233.518C43.6406 233.405 43.6666 233.29 43.6969 233.173C43.7273 233.052 43.7576 232.933 43.7879 232.816L45.0359 228.357L45.9719 228.357L47.2199 232.816C47.2546 232.946 47.2871 233.072 47.3174 233.193C47.3478 233.31 47.3759 233.427 47.4019 233.544C47.4236 233.431 47.4453 233.314 47.4669 233.193C47.4886 233.072 47.5146 232.946 47.5449 232.816L48.5459 228.357L49.6639 228.357L47.9609 235L46.9469 235L45.7379 231.061C45.6989 230.931 45.6556 230.786 45.6079 230.625C45.5646 230.465 45.5256 230.32 45.4909 230.19C45.4606 230.32 45.4238 230.465 45.3804 230.625C45.3371 230.786 45.2959 230.931 45.2569 231.061L44.0609 235L43.0469 235ZM51.2284 235L51.2284 228.357L52.3594 228.357L52.3594 229.033C52.5631 228.751 52.8079 228.543 53.0939 228.409C53.3799 228.27 53.7071 228.201 54.0754 228.201C54.8814 228.201 55.4794 228.446 55.8694 228.935C56.2594 229.421 56.4544 230.168 56.4544 231.178L56.4544 235L55.3234 235L55.3234 230.983C55.3234 230.424 55.1977 229.995 54.9464 229.696C54.6994 229.393 54.3484 229.241 53.8934 229.241C53.3864 229.241 53.0029 229.386 52.7429 229.676C52.4872 229.962 52.3594 230.389 52.3594 230.957L52.3594 235L51.2284 235ZM58.6186 235L58.6186 226.147L59.7496 225.614L59.7496 235L58.6186 235ZM64.504 235.156C63.594 235.156 62.8768 234.846 62.3525 234.226C61.8281 233.602 61.566 232.755 61.566 231.685C61.566 230.97 61.6851 230.352 61.9235 229.832C62.1618 229.312 62.4998 228.912 62.9375 228.63C63.3795 228.344 63.9016 228.201 64.504 228.201C65.1106 228.201 65.6328 228.342 66.0705 228.623C66.5125 228.901 66.8505 229.299 67.0845 229.819C67.3228 230.339 67.442 230.957 67.442 231.672C67.442 232.387 67.3228 233.007 67.0845 233.531C66.8461 234.051 66.506 234.452 66.064 234.733C65.6263 235.015 65.1063 235.156 64.504 235.156ZM64.504 234.103C65.063 234.103 65.5006 233.888 65.817 233.459C66.1376 233.026 66.298 232.43 66.298 231.672C66.298 230.909 66.1376 230.313 65.817 229.884C65.5006 229.455 65.063 229.241 64.504 229.241C63.9406 229.241 63.5008 229.455 63.1845 229.884C62.8681 230.309 62.71 230.909 62.71 231.685C62.71 232.443 62.8681 233.037 63.1845 233.466C63.5008 233.891 63.9406 234.103 64.504 234.103ZM71.3067 235.156C70.5874 235.156 70.0219 234.957 69.6102 234.558C69.1985 234.159 68.9927 233.613 68.9927 232.92C68.9927 232.474 69.0945 232.086 69.2982 231.756C69.5019 231.427 69.79 231.174 70.1627 230.996C70.5354 230.814 70.973 230.723 71.4757 230.723C71.8007 230.723 72.104 230.76 72.3857 230.833C72.6717 230.903 72.9404 231.009 73.1917 231.152L73.1917 230.684C73.1917 230.168 73.0747 229.791 72.8407 229.553C72.6067 229.31 72.2427 229.189 71.7487 229.189C71.4324 229.189 71.103 229.247 70.7607 229.364C70.4227 229.481 70.1064 229.644 69.8117 229.852L69.4867 228.903C69.8204 228.682 70.1995 228.511 70.6242 228.389C71.0532 228.264 71.4757 228.201 71.8917 228.201C72.6804 228.201 73.2719 228.402 73.6662 228.805C74.0605 229.204 74.2577 229.8 74.2577 230.593L74.2577 235L73.1917 235L73.1917 234.389C72.9317 234.636 72.6392 234.827 72.3142 234.961C71.9892 235.091 71.6534 235.156 71.3067 235.156ZM71.4757 234.168C71.7834 234.168 72.0867 234.092 72.3857 233.94C72.689 233.789 72.9577 233.574 73.1917 233.297L73.1917 232.153C72.9707 232.014 72.7194 231.906 72.4377 231.828C72.156 231.75 71.8874 231.711 71.6317 231.711C71.1464 231.711 70.7629 231.821 70.4812 232.042C70.1995 232.259 70.0587 232.556 70.0587 232.933C70.0587 233.314 70.1844 233.615 70.4357 233.836C70.687 234.057 71.0337 234.168 71.4757 234.168ZM78.7689 235.156C77.9239 235.156 77.2544 234.844 76.7604 234.22C76.2707 233.592 76.0259 232.742 76.0259 231.672C76.0259 230.961 76.1364 230.346 76.3574 229.826C76.5827 229.306 76.8991 228.905 77.3064 228.623C77.7181 228.342 78.2056 228.201 78.7689 228.201C79.4189 228.201 79.9779 228.409 80.4459 228.825L80.4459 226.147L81.5769 225.614L81.5769 235L80.4459 235L80.4459 234.48C80.0082 234.931 79.4492 235.156 78.7689 235.156ZM78.9249 234.103C79.2369 234.103 79.5251 234.025 79.7894 233.869C80.0581 233.713 80.2769 233.492 80.4459 233.206L80.4459 230.086C80.2769 229.826 80.0581 229.62 79.7894 229.468C79.5207 229.317 79.2326 229.241 78.9249 229.241C78.3659 229.241 77.9326 229.451 77.6249 229.871C77.3216 230.292 77.1699 230.892 77.1699 231.672C77.1699 232.153 77.2436 232.575 77.3909 232.939C77.5382 233.303 77.7441 233.589 78.0084 233.797C78.2727 234.001 78.5782 234.103 78.9249 234.103ZM86.9703 235L86.9703 225.9L92.4433 225.9L92.4433 226.966L88.1013 226.966L88.1013 229.761L90.9743 229.761L90.9743 230.827L88.1013 230.827L88.1013 235L86.9703 235ZM95.5821 235.156C94.6721 235.156 93.9549 234.846 93.4306 234.226C92.9062 233.602 92.6441 232.755 92.6441 231.685C92.6441 230.97 92.7632 230.352 93.0016 229.832C93.2399 229.312 93.5779 228.912 94.0156 228.63C94.4576 228.344 94.9797 228.201 95.5821 228.201C96.1887 228.201 96.7109 228.342 97.1486 228.623C97.5906 228.901 97.9286 229.299 98.1626 229.819C98.4009 230.339 98.5201 230.957 98.5201 231.672C98.5201 232.387 98.4009 233.007 98.1626 233.531C97.9242 234.051 97.5841 234.452 97.1421 234.733C96.7044 235.015 96.1844 235.156 95.5821 235.156ZM95.5821 234.103C96.1411 234.103 96.5787 233.888 96.8951 233.459C97.2157 233.026 97.3761 232.43 97.3761 231.672C97.3761 230.909 97.2157 230.313 96.8951 229.884C96.5787 229.455 96.1411 229.241 95.5821 229.241C95.0187 229.241 94.5789 229.455 94.2626 229.884C93.9462 230.309 93.7881 230.909 93.7881 231.685C93.7881 232.443 93.9462 233.037 94.2626 233.466C94.5789 233.891 95.0187 234.103 95.5821 234.103ZM100.22 235L100.22 228.357L101.351 228.357L101.351 229.228C101.502 228.89 101.71 228.634 101.975 228.461C102.243 228.288 102.56 228.201 102.924 228.201C103.327 228.201 103.669 228.314 103.951 228.539L103.782 229.605C103.639 229.505 103.489 229.434 103.333 229.39C103.181 229.343 103.015 229.319 102.833 229.319C102.534 229.319 102.274 229.399 102.053 229.559C101.832 229.72 101.658 229.945 101.533 230.235C101.411 230.526 101.351 230.866 101.351 231.256L101.351 235L100.22 235ZM107.503 235.156C106.897 235.156 106.372 235.006 105.93 234.707C105.488 234.408 105.148 233.997 104.91 233.472C104.671 232.948 104.552 232.348 104.552 231.672C104.552 230.94 104.676 230.316 104.923 229.8C105.17 229.28 105.514 228.883 105.956 228.61C106.398 228.337 106.914 228.201 107.503 228.201C108.002 228.201 108.459 228.314 108.875 228.539C109.291 228.76 109.622 229.104 109.869 229.572C110.121 230.036 110.246 230.632 110.246 231.36C110.246 231.464 110.242 231.585 110.233 231.724C110.229 231.858 110.22 231.997 110.207 232.14L105.709 232.14C105.753 232.543 105.852 232.896 106.008 233.199C106.164 233.503 106.37 233.741 106.626 233.914C106.881 234.083 107.183 234.168 107.529 234.168C107.811 234.168 108.071 234.118 108.309 234.018C108.552 233.919 108.777 233.765 108.985 233.557L109.648 234.298C109.401 234.545 109.094 234.751 108.725 234.915C108.361 235.076 107.954 235.156 107.503 235.156ZM105.696 231.152L109.102 231.152C109.102 230.775 109.039 230.439 108.914 230.144C108.792 229.845 108.613 229.611 108.374 229.442C108.136 229.273 107.846 229.189 107.503 229.189C107.022 229.189 106.608 229.345 106.262 229.657C105.919 229.969 105.731 230.467 105.696 231.152ZM114.532 235.156C113.96 235.156 113.468 235.017 113.056 234.74C112.645 234.458 112.328 234.06 112.107 233.544C111.886 233.024 111.776 232.404 111.776 231.685C111.776 230.961 111.889 230.339 112.114 229.819C112.339 229.299 112.66 228.901 113.076 228.623C113.496 228.342 113.999 228.201 114.584 228.201C115.156 228.201 115.641 228.333 116.04 228.597C116.439 228.862 116.729 229.245 116.911 229.748L115.845 230.138C115.737 229.852 115.574 229.633 115.357 229.481C115.145 229.33 114.892 229.254 114.597 229.254C114.06 229.254 113.648 229.462 113.362 229.878C113.076 230.294 112.933 230.896 112.933 231.685C112.933 232.456 113.074 233.05 113.355 233.466C113.637 233.882 114.038 234.09 114.558 234.09C114.892 234.09 115.175 234.003 115.409 233.83C115.648 233.657 115.815 233.414 115.91 233.102L116.963 233.453C116.803 233.999 116.51 234.419 116.085 234.714C115.661 235.009 115.143 235.156 114.532 235.156ZM120.463 235.156C119.744 235.156 119.178 234.957 118.766 234.558C118.355 234.159 118.149 233.613 118.149 232.92C118.149 232.474 118.251 232.086 118.454 231.756C118.658 231.427 118.946 231.174 119.319 230.996C119.692 230.814 120.129 230.723 120.632 230.723C120.957 230.723 121.26 230.76 121.542 230.833C121.828 230.903 122.097 231.009 122.348 231.152L122.348 230.684C122.348 230.168 122.231 229.791 121.997 229.553C121.763 229.31 121.399 229.189 120.905 229.189C120.589 229.189 120.259 229.247 119.917 229.364C119.579 229.481 119.263 229.644 118.968 229.852L118.643 228.903C118.977 228.682 119.356 228.511 119.78 228.389C120.209 228.264 120.632 228.201 121.048 228.201C121.837 228.201 122.428 228.402 122.822 228.805C123.217 229.204 123.414 229.8 123.414 230.593L123.414 235L122.348 235L122.348 234.389C122.088 234.636 121.795 234.827 121.47 234.961C121.145 235.091 120.81 235.156 120.463 235.156ZM120.632 234.168C120.94 234.168 121.243 234.092 121.542 233.94C121.845 233.789 122.114 233.574 122.348 233.297L122.348 232.153C122.127 232.014 121.876 231.906 121.594 231.828C121.312 231.75 121.044 231.711 120.788 231.711C120.303 231.711 119.919 231.821 119.637 232.042C119.356 232.259 119.215 232.556 119.215 232.933C119.215 233.314 119.341 233.615 119.592 233.836C119.843 234.057 120.19 234.168 120.632 234.168ZM127.345 235.156C126.877 235.156 126.426 235.056 125.993 234.857C125.564 234.653 125.213 234.38 124.94 234.038L125.746 233.349C125.98 233.6 126.24 233.795 126.526 233.934C126.812 234.073 127.093 234.142 127.371 234.142C127.761 234.142 128.064 234.068 128.281 233.921C128.497 233.769 128.606 233.561 128.606 233.297C128.606 233.124 128.556 232.968 128.456 232.829C128.361 232.69 128.201 232.558 127.975 232.432C127.754 232.307 127.457 232.175 127.085 232.036C126.352 231.763 125.826 231.466 125.505 231.145C125.189 230.825 125.031 230.428 125.031 229.956C125.031 229.436 125.237 229.013 125.648 228.688C126.064 228.363 126.604 228.201 127.267 228.201C127.722 228.201 128.14 228.288 128.521 228.461C128.903 228.63 129.23 228.877 129.503 229.202L128.723 229.852C128.324 229.427 127.834 229.215 127.254 229.215C126.911 229.215 126.641 229.282 126.441 229.416C126.246 229.546 126.149 229.726 126.149 229.956C126.149 230.177 126.259 230.372 126.48 230.541C126.706 230.706 127.111 230.896 127.696 231.113C128.172 231.286 128.558 231.475 128.853 231.678C129.152 231.882 129.368 232.114 129.503 232.374C129.641 232.634 129.711 232.933 129.711 233.271C129.711 233.856 129.501 234.317 129.08 234.655C128.66 234.989 128.081 235.156 127.345 235.156ZM133.195 235.156C132.74 235.156 132.391 235.019 132.148 234.746C131.91 234.473 131.791 234.081 131.791 233.57L131.791 229.345L130.712 229.345L130.712 228.357L131.791 228.357L131.791 226.16L132.922 225.614L132.922 228.357L134.56 228.357L134.56 229.345L132.922 229.345L132.922 233.193C132.922 233.509 132.976 233.741 133.084 233.888C133.197 234.031 133.372 234.103 133.611 234.103C133.914 234.103 134.243 233.986 134.599 233.752L134.469 234.857C134.274 234.961 134.07 235.037 133.858 235.084C133.65 235.132 133.429 235.156 133.195 235.156Z" fill="white"/>
</g>
<rect x="1.30962" y="246.448" width="245.448" height="358.02" rx="51" transform="rotate(-89.9939 1.30962 246.448)" stroke="url(#paint1_linear_34_466)" stroke-opacity="0.4" stroke-width="2"/>
</g>
<defs>
<filter id="filter0_bi_34_466" x="-41.6849" y="-41.995" width="444.035" height="331.476" filterUnits="userSpaceOnUse" color-interpolation-filters="sRGB">
<feFlood flood-opacity="0" result="BackgroundImageFix"/>
<feGaussianBlur in="BackgroundImageFix" stdDeviation="21"/>
<feComposite in2="SourceAlpha" operator="in" result="effect1_backgroundBlur_34_466"/>
<feBlend mode="normal" in="SourceGraphic" in2="effect1_backgroundBlur_34_466" result="shape"/>
<feColorMatrix in="SourceAlpha" type="matrix" values="0 0 0 0 0 0 0 0 0 0 0 0 0 0 0 0 0 0 127 0" result="hardAlpha"/>
<feOffset dx="-5" dy="-5"/>
<feGaussianBlur stdDeviation="125"/>
<feComposite in2="hardAlpha" operator="arithmetic" k2="-1" k3="1"/>
<feColorMatrix type="matrix" values="0 0 0 0 1 0 0 0 0 1 0 0 0 0 1 0 0 0 0.02 0"/>
<feBlend mode="normal" in2="shape" result="effect2_innerShadow_34_466"/>
</filter>
<radialGradient id="paint0_radial_34_466" cx="0" cy="0" r="1" gradientUnits="userSpaceOnUse" gradientTransform="translate(2.30972 245.448) rotate(55.6355) scale(431.297 279.266)">
<stop stop-color="white" stop-opacity="0.4"/>
<stop offset="1" stop-color="white" stop-opacity="0"/>
</radialGradient>
<linearGradient id="paint1_linear_34_466" x1="2.30972" y1="245.448" x2="109.006" y2="626.187" gradientUnits="userSpaceOnUse">
<stop stop-color="white"/>
<stop offset="1" stop-color="#EEEDED" stop-opacity="0.5"/>
</linearGradient>
<clipPath id="clip0_34_466">
<rect x="2.30972" y="245.448" width="243.448" height="356.02" rx="50" transform="rotate(-89.9939 2.30972 245.448)" fill="white"/>
</clipPath>
</defs>
</svg>
